{
	"asset":{
		"generator":"Khronos glTF Blender I/O v3.6.27",
		"version":"2.0"
	},
	"extensionsUsed":[
		"KHR_materials_emissive_strength"
	],
	"scene":0,
	"scenes":[
		{
			"name":"Scene",
			"nodes":[
				0,
				1
			]
		}
	],
	"nodes":[
		{
			"mesh":0,
			"name":"Icosphere"
		},
		{
			"mesh":1,
			"name":"Cube",
			"rotation":[
				-0.00011078279203502461,
				-0.003102431306615472,
				0.07931157201528549,
				0.9968450665473938
			],
			"scale":[
				3.6542704105377197,
				0.2249864786863327,
				3.6542704105377197
			]
		}
	],
	"materials":[
		{
			"doubleSided":true,
			"emissiveFactor":[
				0.011201145127415657,
				0.09554080665111542,
				1
			],
			"extensions":{
				"KHR_materials_emissive_strength":{
					"emissiveStrength":5
				}
			},
			"name":"Material.002",
			"pbrMetallicRoughness":{
				"baseColorFactor":[
					0,
					0,
					0,
					1
				]
			}
		},
		{
			"doubleSided":true,
			"name":"Material.003",
			"pbrMetallicRoughness":{}
		}
	],
	"meshes":[
		{
			"name":"Icosphere",
			"primitives":[
				{
					"attributes":{
						"POSITION":0,
						"NORMAL":1,
						"TEXCOORD_0":2
					},
					"indices":3,
					"material":0
				}
			]
		},
		{
			"name":"Cube.001",
			"primitives":[
				{
					"attributes":{
						"POSITION":4,
						"NORMAL":5,
						"TEXCOORD_0":6
					},
					"indices":7,
					"material":1
				}
			]
		}
	],
	"accessors":[
		{
			"bufferView":0,
			"componentType":5126,
			"count":2737,
			"max":[
				1,
				1,
				0.9999999403953552
			],
			"min":[
				-0.9999999403953552,
				-1,
				-0.9999999403953552
			],
			"type":"VEC3"
		},
		{
			"bufferView":1,
			"componentType":5126,
			"count":2737,
			"type":"VEC3"
		},
		{
			"bufferView":2,
			"componentType":5126,
			"count":2737,
			"type":"VEC2"
		},
		{
			"bufferView":3,
			"componentType":5123,
			"count":15360,
			"type":"SCALAR"
		},
		{
			"bufferView":4,
			"componentType":5126,
			"count":24,
			"max":[
				1,
				1,
				1
			],
			"min":[
				-1,
				-1,
				-1
			],
			"type":"VEC3"
		},
		{
			"bufferView":5,
			"componentType":5126,
			"count":24,
			"type":"VEC3"
		},
		{
			"bufferView":6,
			"componentType":5126,
			"count":24,
			"type":"VEC2"
		},
		{
			"bufferView":7,
			"componentType":5123,
			"count":36,
			"type":"SCALAR"
		}
	],
	"bufferViews":[
		{
			"buffer":0,
			"byteLength":32844,
			"byteOffset":0,
			"target":34962
		},
		{
			"buffer":0,
			"byteLength":32844,
			"byteOffset":32844,
			"target":34962
		},
		{
			"buffer":0,
			"byteLength":21896,
			"byteOffset":65688,
			"target":34962
		},
		{
			"buffer":0,
			"byteLength":30720,
			"byteOffset":87584,
			"target":34963
		},
		{
			"buffer":0,
			"byteLength":288,
			"byteOffset":118304,
			"target":34962
		},
		{
			"buffer":0,
			"byteLength":288,
			"byteOffset":118592,
			"target":34962
		},
		{
			"buffer":0,
			"byteLength":192,
			"byteOffset":118880,
			"target":34962
		},
		{
			"buffer":0,
			"byteLength":72,
			"byteOffset":119072,
			"target":34963
		}
	],
	"buffers":[
		{
			"byteLength":119144,
			"uri":"scene.bin"
		}
	]
}
